<svg width="38" height="39" viewBox="0 0 38 39" fill="none" xmlns="http://www.w3.org/2000/svg">
<path d="M10.1989 26.3225C10.0619 26.1288 9.92889 25.6892 9.88689 25.2882C9.82889 24.7288 9.86089 24.4968 10.0519 24.1178C10.3609 23.5055 10.4459 22.6909 10.2329 22.3931C10.1049 22.2195 9.91089 22.1247 9.28489 21.9415C9.23789 21.9285 9.18889 21.9145 9.13689 21.8999C8.62589 21.7566 8.19489 21.6326 8.17989 21.6247C8.17589 21.6227 8.17189 21.606 8.16589 21.5765C8.09289 21.5448 8.04388 21.519 8.02888 21.5016C7.99788 21.4658 7.96989 21.3251 7.95189 21.1357C8.03189 24.1173 8.18089 28.0532 8.24389 28.8475C8.25689 29.0196 8.26589 29.2928 8.26189 29.456C8.24789 30.0335 8.35589 32.1767 8.45889 33.3951C8.49289 33.7744 8.50889 34.1081 8.49989 34.1353C8.48889 34.162 8.49088 34.3248 8.50388 34.4969C8.51588 34.6691 8.55089 35.2529 8.57889 35.795C8.63589 36.882 8.82188 37.7106 9.10088 38.1189C9.32188 38.4434 10.2749 38.9599 10.6209 38.9426C11.3059 38.91 11.8079 38.7566 12.5089 38.3638C12.9319 38.1273 13.4569 37.8377 13.6769 37.7205C13.8959 37.6026 14.0999 37.4595 14.1309 37.4016C14.1619 37.3437 14.2759 37.2699 14.3829 37.2361C14.4909 37.2033 14.8559 36.9977 15.1959 36.778C15.5349 36.5594 16.2689 36.1059 16.8259 35.7707C17.3819 35.4354 17.8729 35.097 17.9129 35.0204C17.9549 34.9428 18.0629 34.876 18.1549 34.8722C18.2469 34.8683 18.6019 34.6831 18.9429 34.4608C19.2859 34.2379 20.0519 33.7564 20.6469 33.3899C21.2429 33.0239 21.8889 32.6198 22.0829 32.4917C22.2769 32.365 22.4699 32.252 22.5129 32.2412C22.5549 32.231 22.9499 31.9824 23.3909 31.6896C25.0439 30.593 25.3109 30.4222 25.7389 30.193C26.0929 30.0026 26.1899 29.9539 26.6109 29.9725C26.5939 29.9673 26.5799 29.9632 26.5669 29.9586C26.4589 29.9508 26.3399 29.9544 26.2429 29.9675C26.0159 30.0361 25.6909 30.1965 25.3289 30.423C25.0549 30.5961 24.8229 30.6863 24.8159 30.626C24.8069 30.5652 24.6929 30.4673 24.5589 30.408C24.5519 30.4055 24.5459 30.402 24.5389 30.3985C24.5329 30.3965 24.5269 30.3944 24.5219 30.392C24.3649 30.3227 24.1609 30.0455 23.9829 29.6979C23.8219 29.3897 23.6849 29.0256 23.6179 28.6879C23.4489 27.8494 23.2679 27.7881 22.0199 28.1438C21.1289 28.3974 20.8829 28.4164 20.1419 28.2932C18.5919 28.0343 17.4269 27.178 17.0629 26.0292C16.8369 25.3161 16.4229 24.6895 16.0449 24.4889C15.5219 24.2108 14.4419 24.8069 13.7049 25.78C13.1449 26.5198 12.6389 26.907 12.0649 27.0322C11.3819 27.1817 10.5969 26.8828 10.1989 26.3225ZM7.91988 20.3508C7.89988 20.055 7.84488 19.8894 7.75488 19.8412C7.59088 19.7544 7.38288 19.5106 7.18188 19.1942C7.38188 19.5101 7.58989 19.7533 7.74989 19.8388C7.83389 19.8835 7.89088 20.0577 7.91988 20.3508ZM29.2449 29.5918C29.0519 29.7023 28.8289 29.7943 28.5879 29.8654C28.8269 29.7956 29.0499 29.7038 29.2449 29.5918Z" fill="#D6B89C"/>
<path d="M19.6318 28.1759L19.4458 27.7627L19.9338 27.5425L20.0698 28.0608L19.6318 28.1759ZM8.08184 23.8449L8.50284 24.0121L8.16884 24.8548L7.74784 24.6875L8.08184 23.8449ZM20.9708 33.2753L20.5318 33.3904L19.1938 28.2909L19.6318 28.1759L20.0698 28.0608L21.4088 33.1603L20.9708 33.2753ZM17.9928 35.0671L17.5678 35.2249L13.8208 25.1325L14.2458 24.9747L14.6708 24.817L18.4178 34.9094L17.9928 35.0671ZM15.0148 36.859L14.5968 37.0331L10.4468 27.064L10.8648 26.8897L11.2838 26.7156L15.4338 36.6848L15.0148 36.859ZM12.0368 38.6507C11.6038 38.7833 11.6038 38.7831 11.6038 38.7831L11.6028 38.7806C11.6028 38.7806 11.6018 38.7762 11.6008 38.7727C11.5988 38.7657 11.5948 38.7553 11.5908 38.7416C11.5828 38.714 11.5698 38.6733 11.5538 38.6201C11.5218 38.5138 11.4738 38.3579 11.4138 38.1596C11.2928 37.7629 11.1208 37.1964 10.9148 36.517C10.5038 35.1581 9.95884 33.3476 9.42384 31.5405C8.88884 29.7341 8.36284 27.929 7.98984 26.5823C7.80384 25.9099 7.65384 25.3466 7.56084 24.9532C7.51484 24.7589 7.47984 24.5945 7.46084 24.476C7.45284 24.4231 7.44384 24.3503 7.44584 24.2812C7.44684 24.2608 7.44884 24.1646 7.49984 24.0638C7.52984 24.0056 7.59784 23.9057 7.72984 23.849C7.87084 23.789 8.00184 23.8129 8.08184 23.8449L7.91484 24.2662L7.74784 24.6875C7.82284 24.7175 7.94884 24.7412 8.08584 24.6829C8.21484 24.6279 8.27984 24.5312 8.30684 24.4782C8.33384 24.4249 8.34384 24.3794 8.34684 24.3597C8.35084 24.3368 8.35184 24.3195 8.35184 24.3118C8.35284 24.2904 8.34984 24.2919 8.35784 24.3384C8.36984 24.4188 8.39784 24.5534 8.44284 24.7439C8.53184 25.1201 8.67784 25.67 8.86384 26.3404C9.23384 27.679 9.75784 29.4777 10.2928 31.2831C10.8278 33.0878 11.3718 34.8966 11.7828 36.2544C11.9878 36.9332 12.1598 37.4993 12.2808 37.8956C12.3408 38.0937 12.3888 38.2494 12.4208 38.3555C12.4368 38.4086 12.4498 38.4493 12.4578 38.4768C12.4618 38.4904 12.4648 38.5008 12.4678 38.5077C12.4688 38.5113 12.4698 38.5156 12.4698 38.5156L12.4708 38.5176C12.4708 38.5176 12.4708 38.5182 12.0368 38.6507ZM24.1048 30.5543L24.2848 30.9705L8.89684 37.633L8.71784 37.2167V36.7167L23.9248 30.1381L24.1048 30.5543ZM19.6318 28.1759C19.8178 28.5892 19.8178 28.5892 19.8178 28.5892L19.8158 28.5901C19.8158 28.5901 19.8128 28.5915 19.8098 28.5926C19.8048 28.595 19.7978 28.5984 19.7868 28.603C19.7668 28.6121 19.7368 28.6255 19.6978 28.6432C19.6198 28.6784 19.5048 28.7301 19.3588 28.796C19.0658 28.9277 18.6458 29.1162 18.1408 29.3432C17.1288 29.797 15.7718 30.4048 14.3898 31.0203C13.0068 31.6358 11.5988 32.2594 10.4848 32.7446C9.39084 33.2214 8.53884 33.6453 8.30484 33.7167V33.2167V32.7167C8.47384 32.665 8.99284 32.4059 10.1228 31.9135C11.2328 31.4297 12.6388 30.8072 14.0208 30.1922C15.4018 29.5771 16.7578 28.9697 17.7688 28.516C18.2748 28.2892 18.6938 28.1008 18.9868 27.9692C19.1328 27.9033 19.2478 27.8517 19.3258 27.8165C19.3648 27.799 19.3948 27.7854 19.4148 27.7764C19.4248 27.7718 19.4328 27.7683 19.4378 27.7661C19.4408 27.7649 19.4438 27.7634 19.4438 27.7634L19.4458 27.7627C19.4458 27.7627 19.4458 27.7627 19.6318 28.1759ZM16.6138 26.2339L16.7368 26.6704L8.21784 29.2167V28.7167V28.2167L16.4918 25.7975L16.6138 26.2339ZM10.2828 23.5423L10.4148 23.9758L7.99684 24.7151L7.86484 24.2816L7.73184 23.8481L10.1498 23.1088L10.2828 23.5423Z" fill="#C29A75"/>
<path d="M34.1098 26.995C36.3288 23.1207 35.7588 19.4072 35.1968 18.0347C36.6048 15.5299 38.9888 10.2667 37.2638 9.25192C35.5388 8.23712 31.4998 9.45722 29.6968 10.1941C27.7038 8.94342 23.2218 6.43842 21.2358 6.42422C20.6488 4.36812 19.0338 0.20794 17.2688 0.0159305C15.0618 -0.22409 13.9908 2.25689 11.8428 6.86502C10.4098 7.48252 7.18577 9.74282 5.75477 13.844L2.43917 12.2981C1.92877 12.4107 1.07307 12.8708 1.73407 13.8102L5.04877 15.356C4.94177 15.8319 4.73777 16.9815 4.78087 17.773L0.79087 17.4903C0.38567 17.6228 -0.309331 18.0818 0.152969 18.8584C0.307469 19.0181 0.678971 19.314 0.928771 19.2202L4.78207 19.543C5.50877 25.3516 11.9368 29.3663 15.0608 30.6475C22.2858 34.157 28.2588 32.3605 30.3418 31.0236L33.6948 34.5153C34.8798 35.0679 34.8978 34.083 34.7588 33.5215C33.5138 32.3857 31.1278 30.0751 31.5448 29.9187C31.9608 29.7622 32.6538 28.8289 32.9478 28.3817L33.3708 28.5791L36.8278 30.1907C38.2278 30.2825 37.9028 29.1729 37.5658 28.6067L34.1098 26.995Z" fill="#140005"/>
<path d="M20.041 26.0444C18.319 26.6439 18.699 25.3016 19.104 24.5555C19.951 24.5651 21.471 24.2057 20.778 22.6903C20.211 22.2503 18.888 21.4407 18.139 21.7223C17.692 21.9579 17.035 22.7493 17.975 24.0292C17.186 24.8008 16.034 24.8772 15.597 23.9723C15.248 23.2484 14.755 23.8135 14.553 24.1865C15.037 26.0952 16.824 25.9466 17.656 25.6337C18.199 27.7102 19.696 27.52 20.377 27.1653C21.247 25.8881 20.516 25.8859 20.041 26.0444Z" fill="#FFEBEF"/>
<path d="M10.8899 13.6253C13.2709 10.8782 16.3579 12.5808 17.6039 13.7756C20.8609 17.3981 18.9569 19.9583 17.5979 20.7856C16.5469 21.2597 13.8889 21.6329 11.6639 19.3331C9.4389 17.0332 10.2209 14.5696 10.8899 13.6253Z" fill="#FDD16D"/>
<path d="M22.0119 21.2657C23.2659 18.1338 26.2259 18.059 27.5499 18.4131C29.0239 18.7501 32.8229 19.9954 31.4969 23.76C30.4359 26.7717 27.0089 26.6932 25.4279 26.2774C21.7629 24.7086 21.6229 22.2826 22.0119 21.2657Z" fill="#FDD16D"/>
<path d="M24.904 22.6143C25.07 19.6062 26.556 18.8263 27.278 18.8124C28.027 18.9863 29.383 19.9695 28.816 22.5104C28.25 25.0513 27.038 25.7718 26.503 25.8145C25.901 26.0011 24.738 25.6224 24.904 22.6143Z" fill="black"/>
<path d="M13.4398 15.3403C15.1648 13.4096 16.4238 13.6054 16.8388 13.9447C18.2488 14.6025 17.3098 16.6776 16.6638 17.6328C14.4238 20.375 12.9318 19.8664 12.4668 19.2694C12.0718 18.7641 11.7148 17.271 13.4398 15.3403Z" fill="black"/>
<path d="M10.8899 13.6253C13.2709 10.8782 16.3579 12.5808 17.6039 13.7756C20.8609 17.3981 18.9569 19.9583 17.5979 20.7856C16.5469 21.2597 13.8889 21.6329 11.6639 19.3331C9.4389 17.0332 10.2209 14.5696 10.8899 13.6253Z" fill="white"/>
<path d="M22.0119 21.2657C23.2659 18.1338 26.2259 18.059 27.5499 18.4131C29.0239 18.7501 32.8229 19.9954 31.4969 23.76C30.4359 26.7717 27.0089 26.6932 25.4279 26.2774C21.7629 24.7086 21.6229 22.2826 22.0119 21.2657Z" fill="white"/>
<path d="M24.9028 22.6142C25.0698 19.6061 26.5548 18.8262 27.2768 18.8123C28.0258 18.9862 29.3828 19.9693 28.8158 22.5102C28.2498 25.0511 27.0378 25.7717 26.5028 25.8144C25.8998 26.001 24.7368 25.6223 24.9028 22.6142Z" fill="black"/>
<path d="M13.44 15.3401C15.164 13.4094 16.424 13.6052 16.838 13.9445C18.249 14.6023 17.31 16.6773 16.664 17.6326C14.424 20.3748 12.932 19.8662 12.466 19.2691C12.072 18.7639 11.715 17.2708 13.44 15.3401Z" fill="black"/>
<path d="M24.9028 22.6142C25.0698 19.6061 26.5548 18.8262 27.2768 18.8123C28.0258 18.9862 29.3828 19.9693 28.8158 22.5102C28.2498 25.0511 27.0378 25.7717 26.5028 25.8144C25.8998 26.001 24.7368 25.6223 24.9028 22.6142Z" stroke="black"/>
<path d="M13.44 15.3401C15.164 13.4094 16.424 13.6052 16.838 13.9445C18.249 14.6023 17.31 16.6773 16.664 17.6326C14.424 20.3748 12.932 19.8662 12.466 19.2691C12.072 18.7639 11.715 17.2708 13.44 15.3401Z" stroke="black"/>
</svg>
