<svg width="141" height="53" viewBox="0 0 141 53" fill="none" xmlns="http://www.w3.org/2000/svg">
<path d="M14.4324 29.848C14.4537 28.9627 14.363 28.1307 14.1604 27.352C13.9684 26.5627 13.611 25.928 13.0884 25.448C12.5764 24.9573 11.8457 24.712 10.8964 24.712C9.53105 24.712 8.55505 25.352 7.96838 26.632C7.39238 27.912 7.10438 29.7627 7.10438 32.184C7.10438 34.4667 7.48305 36.1787 8.24038 37.32C9.00838 38.4507 10.091 39.016 11.4884 39.016C12.5977 39.016 13.595 38.7813 14.4804 38.312C15.3657 37.8427 16.1817 37.3307 16.9284 36.776C17.4297 37.1067 17.9204 37.592 18.4004 38.232C18.8804 38.8613 19.1737 39.4747 19.2804 40.072C18.6617 40.68 17.8937 41.24 16.9764 41.752C16.0697 42.264 15.067 42.68 13.9684 43C12.8697 43.3093 11.7284 43.464 10.5444 43.464C8.86972 43.464 7.46172 43.1387 6.32038 42.488C5.18972 41.8373 4.28838 40.968 3.61638 39.88C2.94438 38.7813 2.45905 37.5653 2.16038 36.232C1.87238 34.888 1.72838 33.528 1.72838 32.152C1.72838 29.464 2.15505 27.2773 3.00838 25.592C3.86172 23.896 4.99238 22.648 6.40038 21.848C7.81905 21.048 9.38172 20.648 11.0884 20.648C12.7417 20.648 14.1817 20.9413 15.4084 21.528C16.6457 22.1147 17.6004 22.9093 18.2724 23.912C18.955 24.9147 19.2964 26.0453 19.2964 27.304C19.2964 28.3067 19.035 29.0267 18.5124 29.464C18.0004 29.9013 17.2857 30.12 16.3684 30.12C16.0057 30.12 15.6697 30.0933 15.3604 30.04C15.051 29.9867 14.7417 29.9227 14.4324 29.848ZM21.0051 38.632C21.0051 37.3413 21.3038 36.2907 21.9011 35.48C22.4985 34.6587 23.2771 34.0507 24.2371 33.656C25.2078 33.2613 26.2425 33.064 27.3411 33.064C27.8211 33.064 28.4238 33.0747 29.1491 33.096C29.8851 33.1173 30.5465 33.1867 31.1331 33.304V36.472C30.6745 36.3653 30.1198 36.3067 29.4691 36.296C28.8291 36.2747 28.2958 36.264 27.8691 36.264C27.1545 36.264 26.6425 36.456 26.3331 36.84C26.0238 37.2133 25.8691 37.6987 25.8691 38.296C25.8691 38.7227 25.9971 39.08 26.2531 39.368C26.5198 39.6453 26.8825 39.784 27.3411 39.784C27.9811 39.784 28.6318 39.5547 29.2931 39.096C29.9545 38.6373 30.5145 38.008 30.9731 37.208L31.6771 40.376C31.2611 40.8667 30.7865 41.352 30.2531 41.832C29.7198 42.3013 29.0958 42.6907 28.3811 43C27.6665 43.3093 26.8291 43.464 25.8691 43.464C24.7705 43.464 23.8585 43.224 23.1331 42.744C22.4185 42.2533 21.8851 41.64 21.5331 40.904C21.1811 40.1573 21.0051 39.4 21.0051 38.632ZM35.5171 40.68C35.4318 41.128 35.2345 41.608 34.9251 42.12C34.6158 42.632 34.3065 43.0107 33.9971 43.256C33.0585 43.2347 32.2798 43.0213 31.6611 42.616C31.0531 42.2107 30.5838 41.7147 30.2531 41.128C29.9331 40.5307 29.7251 39.9493 29.6291 39.384V32.536C29.6291 31.8747 29.4585 31.3733 29.1171 31.032C28.7865 30.68 28.2585 30.504 27.5331 30.504C26.8505 30.504 26.1038 30.616 25.2931 30.84C24.4825 31.0533 23.6558 31.2827 22.8131 31.528C22.4611 31.1227 22.1838 30.6 21.9811 29.96C21.7891 29.3093 21.6665 28.6747 21.6131 28.056C22.3385 27.7573 23.1385 27.5067 24.0131 27.304C24.8878 27.0907 25.7571 26.9307 26.6211 26.824C27.4851 26.7067 28.2585 26.648 28.9411 26.648C29.8798 26.648 30.7811 26.824 31.6451 27.176C32.5091 27.5173 33.2185 28.088 33.7731 28.888C34.3385 29.6773 34.6211 30.7493 34.6211 32.104V38.616C34.6211 39.0747 34.6958 39.48 34.8451 39.832C34.9945 40.184 35.2185 40.4667 35.5171 40.68ZM45.4754 39.352C45.5927 39.704 45.6887 40.088 45.7634 40.504C45.838 40.9093 45.8754 41.3147 45.8754 41.72C45.8754 41.9013 45.8647 42.0933 45.8434 42.296C45.8327 42.4987 45.8007 42.6853 45.7474 42.856C45.2674 42.9307 44.7287 43 44.1314 43.064C43.534 43.128 42.926 43.16 42.3074 43.16C40.8567 43.16 39.8274 42.8027 39.2194 42.088C38.622 41.3627 38.3234 40.2373 38.3234 38.712V19.672L38.5474 19.448H40.4994C41.4807 19.448 42.1794 19.672 42.5954 20.12C43.0114 20.568 43.2194 21.3467 43.2194 22.456V37.832C43.2194 38.3227 43.326 38.7013 43.5394 38.968C43.7527 39.224 44.1047 39.352 44.5954 39.352H45.4754ZM61.5591 38.376C61.5591 38.888 61.6391 39.352 61.7991 39.768C61.9698 40.184 62.1885 40.488 62.4551 40.68C62.3698 41.128 62.1725 41.608 61.8631 42.12C61.5538 42.632 61.2445 43.0107 60.9351 43.256C59.5271 43.2347 58.4658 42.76 57.7511 41.832C57.0365 40.904 56.6791 39.7733 56.6791 38.44V19.672L56.9031 19.448H58.8551C59.8365 19.448 60.5298 19.672 60.9351 20.12C61.3511 20.568 61.5591 21.3467 61.5591 22.456V38.376ZM47.3191 35.208C47.3191 33.3733 47.6071 31.8267 48.1831 30.568C48.7698 29.2987 49.5485 28.3387 50.5191 27.688C51.4898 27.0373 52.5618 26.712 53.7351 26.712C54.8445 26.712 55.8258 26.9413 56.6791 27.4C57.5325 27.8587 58.3165 28.3013 59.0311 28.728L58.2311 32.28C57.6125 31.7787 56.9831 31.3467 56.3431 30.984C55.7031 30.6107 55.1218 30.424 54.5991 30.424C54.0871 30.424 53.6711 30.6213 53.3511 31.016C53.0418 31.4 52.8125 31.9547 52.6631 32.68C52.5138 33.3947 52.4391 34.248 52.4391 35.24C52.4391 36.2213 52.5191 37.0267 52.6791 37.656C52.8498 38.2747 53.0791 38.7333 53.3671 39.032C53.6658 39.32 53.9965 39.464 54.3591 39.464C54.7005 39.464 55.0951 39.3627 55.5431 39.16C56.0018 38.9467 56.4445 38.552 56.8711 37.976C57.3085 37.3893 57.6658 36.536 57.9431 35.416L59.0791 38.248C58.9831 39.112 58.6525 39.944 58.0871 40.744C57.5325 41.5333 56.8178 42.184 55.9431 42.696C55.0791 43.208 54.1191 43.464 53.0631 43.464C51.7725 43.464 50.7005 43.112 49.8471 42.408C48.9938 41.704 48.3591 40.7333 47.9431 39.496C47.5271 38.248 47.3191 36.8187 47.3191 35.208ZM64.4739 38.632C64.4739 37.3413 64.7725 36.2907 65.3699 35.48C65.9672 34.6587 66.7459 34.0507 67.7059 33.656C68.6765 33.2613 69.7112 33.064 70.8099 33.064C71.2899 33.064 71.8925 33.0747 72.6179 33.096C73.3539 33.1173 74.0152 33.1867 74.6019 33.304V36.472C74.1432 36.3653 73.5885 36.3067 72.9379 36.296C72.2979 36.2747 71.7645 36.264 71.3379 36.264C70.6232 36.264 70.1112 36.456 69.8019 36.84C69.4925 37.2133 69.3379 37.6987 69.3379 38.296C69.3379 38.7227 69.4659 39.08 69.7219 39.368C69.9885 39.6453 70.3512 39.784 70.8099 39.784C71.4499 39.784 72.1005 39.5547 72.7619 39.096C73.4232 38.6373 73.9832 38.008 74.4419 37.208L75.1459 40.376C74.7299 40.8667 74.2552 41.352 73.7219 41.832C73.1885 42.3013 72.5645 42.6907 71.8499 43C71.1352 43.3093 70.2979 43.464 69.3379 43.464C68.2392 43.464 67.3272 43.224 66.6019 42.744C65.8872 42.2533 65.3539 41.64 65.0019 40.904C64.6499 40.1573 64.4739 39.4 64.4739 38.632ZM78.9859 40.68C78.9005 41.128 78.7032 41.608 78.3939 42.12C78.0845 42.632 77.7752 43.0107 77.4659 43.256C76.5272 43.2347 75.7485 43.0213 75.1299 42.616C74.5219 42.2107 74.0525 41.7147 73.7219 41.128C73.4019 40.5307 73.1939 39.9493 73.0979 39.384V32.536C73.0979 31.8747 72.9272 31.3733 72.5859 31.032C72.2552 30.68 71.7272 30.504 71.0019 30.504C70.3192 30.504 69.5725 30.616 68.7619 30.84C67.9512 31.0533 67.1245 31.2827 66.2819 31.528C65.9299 31.1227 65.6525 30.6 65.4499 29.96C65.2579 29.3093 65.1352 28.6747 65.0819 28.056C65.8072 27.7573 66.6072 27.5067 67.4819 27.304C68.3565 27.0907 69.2259 26.9307 70.0899 26.824C70.9539 26.7067 71.7272 26.648 72.4099 26.648C73.3485 26.648 74.2499 26.824 75.1139 27.176C75.9779 27.5173 76.6872 28.088 77.2419 28.888C77.8072 29.6773 78.0899 30.7493 78.0899 32.104V38.616C78.0899 39.0747 78.1645 39.48 78.3139 39.832C78.4632 40.184 78.6872 40.4667 78.9859 40.68ZM80.5441 41.896C80.5655 41.3627 80.7095 40.7653 80.9761 40.104C81.2535 39.4427 81.5788 38.92 81.9521 38.536C82.6455 38.8987 83.3655 39.2133 84.1121 39.48C84.8695 39.736 85.6215 39.864 86.3681 39.864C86.9868 39.864 87.4508 39.7573 87.7601 39.544C88.0801 39.3307 88.2401 39.064 88.2401 38.744C88.2401 38.4347 88.1228 38.1627 87.8881 37.928C87.6641 37.6827 87.2961 37.4693 86.7841 37.288L85.0081 36.648C84.2615 36.3707 83.5841 36.024 82.9761 35.608C82.3681 35.1813 81.8881 34.664 81.5361 34.056C81.1841 33.4373 81.0081 32.7013 81.0081 31.848C81.0081 30.76 81.2641 29.8213 81.7761 29.032C82.2881 28.2427 83.0081 27.6347 83.9361 27.208C84.8641 26.7707 85.9521 26.552 87.2001 26.552C88.2135 26.552 89.2748 26.6907 90.3841 26.968C91.4935 27.2453 92.3948 27.5547 93.0881 27.896C93.1095 28.28 93.0615 28.7067 92.9441 29.176C92.8268 29.6453 92.6561 30.0773 92.4321 30.472C92.2188 30.8667 91.9788 31.1653 91.7121 31.368C91.0508 31.0693 90.3308 30.7973 89.5521 30.552C88.7735 30.296 88.0055 30.168 87.2481 30.168C86.8215 30.168 86.4961 30.2693 86.2721 30.472C86.0481 30.6747 85.9361 30.9147 85.9361 31.192C85.9361 31.4693 86.0321 31.704 86.2241 31.896C86.4161 32.088 86.7255 32.2587 87.1521 32.408L89.1361 33.112C90.3521 33.5387 91.3655 34.1627 92.1761 34.984C92.9868 35.8053 93.3921 36.8987 93.3921 38.264C93.3921 39.8533 92.7788 41.1173 91.5521 42.056C90.3361 42.9947 88.6455 43.464 86.4801 43.464C85.3388 43.464 84.2508 43.3093 83.2161 43C82.1921 42.6907 81.3015 42.3227 80.5441 41.896Z" fill="#FE96AF"/>
<path d="M105.381 30.1058C105.244 29.9121 105.111 29.4725 105.069 29.0715C105.011 28.5121 105.043 28.2801 105.234 27.9011C105.543 27.2888 105.628 26.4742 105.415 26.1764C105.287 26.0028 105.093 25.908 104.467 25.7248C104.42 25.7118 104.371 25.6978 104.319 25.6832C103.808 25.5399 103.377 25.4159 103.362 25.408C103.358 25.406 103.354 25.3893 103.348 25.3598C103.275 25.3281 103.226 25.3023 103.211 25.2849C103.18 25.2491 103.152 25.1084 103.134 24.919C103.214 27.9006 103.363 31.8365 103.426 32.6308C103.439 32.8029 103.448 33.0761 103.444 33.2393C103.43 33.8168 103.538 35.96 103.641 37.1784C103.675 37.5577 103.691 37.8914 103.682 37.9186C103.671 37.9453 103.673 38.1081 103.686 38.2802C103.698 38.4524 103.733 39.0362 103.761 39.5783C103.818 40.6653 104.004 41.4939 104.283 41.9022C104.504 42.2267 105.457 42.7432 105.803 42.7259C106.488 42.6933 106.99 42.5399 107.691 42.1471C108.114 41.9106 108.639 41.621 108.859 41.5038C109.078 41.3859 109.282 41.2428 109.313 41.1849C109.344 41.127 109.458 41.0532 109.565 41.0194C109.673 40.9866 110.038 40.781 110.378 40.5613C110.717 40.3427 111.451 39.8892 112.008 39.554C112.564 39.2187 113.055 38.8803 113.095 38.8037C113.137 38.7261 113.245 38.6593 113.337 38.6555C113.429 38.6516 113.784 38.4664 114.125 38.2441C114.468 38.0212 115.234 37.5397 115.829 37.1732C116.425 36.8072 117.071 36.4031 117.265 36.275C117.459 36.1483 117.652 36.0353 117.695 36.0245C117.737 36.0143 118.132 35.7657 118.573 35.4729C120.226 34.3763 120.493 34.2055 120.921 33.9763C121.275 33.7859 121.372 33.7372 121.793 33.7558C121.776 33.7506 121.762 33.7465 121.749 33.7419C121.641 33.7341 121.522 33.7377 121.425 33.7508C121.198 33.8194 120.873 33.9798 120.511 34.2063C120.237 34.3794 120.005 34.4696 119.998 34.4093C119.989 34.3485 119.875 34.2506 119.741 34.1913C119.734 34.1888 119.728 34.1853 119.721 34.1818C119.715 34.1798 119.709 34.1777 119.704 34.1753C119.547 34.106 119.343 33.8288 119.165 33.4812C119.004 33.173 118.867 32.8089 118.8 32.4712C118.631 31.6327 118.45 31.5714 117.202 31.9271C116.311 32.1807 116.065 32.1997 115.324 32.0765C113.774 31.8176 112.609 30.9613 112.245 29.8125C112.019 29.0994 111.605 28.4728 111.227 28.2722C110.704 27.9941 109.624 28.5902 108.887 29.5633C108.327 30.3031 107.821 30.6903 107.247 30.8155C106.564 30.965 105.779 30.6661 105.381 30.1058ZM103.102 24.1341C103.082 23.8383 103.027 23.6727 102.937 23.6245C102.773 23.5377 102.565 23.2939 102.364 22.9775C102.564 23.2934 102.772 23.5366 102.932 23.6221C103.016 23.6668 103.073 23.841 103.102 24.1341ZM124.427 33.3751C124.234 33.4856 124.011 33.5776 123.77 33.6487C124.009 33.5789 124.232 33.4871 124.427 33.3751Z" fill="#D6B89C"/>
<path d="M114.814 31.9592L114.628 31.546L115.116 31.3258L115.252 31.8441L114.814 31.9592ZM103.264 27.6282L103.685 27.7954L103.351 28.6381L102.93 28.4708L103.264 27.6282ZM116.153 37.0586L115.714 37.1737L114.376 32.0742L114.814 31.9592L115.252 31.8441L116.591 36.9436L116.153 37.0586ZM113.175 38.8504L112.75 39.0082L109.003 28.9158L109.428 28.758L109.853 28.6003L113.6 38.6927L113.175 38.8504ZM110.197 40.6423L109.779 40.8164L105.629 30.8473L106.047 30.673L106.466 30.4989L110.616 40.4681L110.197 40.6423ZM107.219 42.434C106.786 42.5666 106.786 42.5664 106.786 42.5664L106.785 42.5639C106.785 42.5639 106.784 42.5595 106.783 42.556C106.781 42.549 106.777 42.5386 106.773 42.5249C106.765 42.4973 106.752 42.4566 106.736 42.4034C106.704 42.2971 106.656 42.1412 106.596 41.9429C106.475 41.5462 106.303 40.9797 106.097 40.3003C105.686 38.9414 105.141 37.1309 104.606 35.3238C104.071 33.5174 103.545 31.7123 103.172 30.3656C102.986 29.6932 102.836 29.1299 102.743 28.7365C102.697 28.5422 102.662 28.3778 102.643 28.2593C102.635 28.2064 102.626 28.1336 102.628 28.0645C102.629 28.0441 102.631 27.9479 102.682 27.8471C102.712 27.7889 102.78 27.689 102.912 27.6323C103.053 27.5723 103.184 27.5962 103.264 27.6282L103.097 28.0495L102.93 28.4708C103.005 28.5008 103.131 28.5245 103.268 28.4662C103.397 28.4112 103.462 28.3145 103.489 28.2615C103.516 28.2082 103.526 28.1627 103.529 28.143C103.533 28.1201 103.534 28.1028 103.534 28.0951C103.535 28.0737 103.532 28.0752 103.54 28.1217C103.552 28.2021 103.58 28.3367 103.625 28.5272C103.714 28.9034 103.86 29.4533 104.046 30.1237C104.416 31.4623 104.94 33.261 105.475 35.0664C106.01 36.8711 106.554 38.6799 106.965 40.0377C107.17 40.7165 107.342 41.2826 107.463 41.6789C107.523 41.877 107.571 42.0327 107.603 42.1388C107.619 42.1919 107.632 42.2326 107.64 42.2601C107.644 42.2737 107.647 42.2841 107.65 42.291C107.651 42.2946 107.652 42.2989 107.652 42.2989L107.653 42.3009C107.653 42.3009 107.653 42.3015 107.219 42.434ZM119.287 34.3376L119.467 34.7538L104.079 41.4163L103.9 41L103.9 40.5L119.107 33.9214L119.287 34.3376ZM114.814 31.9592C115 32.3725 115 32.3725 115 32.3725L114.998 32.3734C114.998 32.3734 114.995 32.3748 114.992 32.3759C114.987 32.3783 114.98 32.3817 114.969 32.3863C114.949 32.3954 114.919 32.4088 114.88 32.4265C114.802 32.4617 114.687 32.5134 114.541 32.5793C114.248 32.711 113.828 32.8995 113.323 33.1265C112.311 33.5803 110.954 34.1881 109.572 34.8036C108.189 35.4191 106.781 36.0427 105.667 36.5279C104.573 37.0047 103.721 37.4286 103.487 37.5L103.487 37L103.487 36.5C103.656 36.4483 104.175 36.1892 105.305 35.6968C106.415 35.213 107.821 34.5905 109.203 33.9755C110.584 33.3604 111.94 32.753 112.951 32.2993C113.457 32.0725 113.876 31.8841 114.169 31.7525C114.315 31.6866 114.43 31.635 114.508 31.5998C114.547 31.5823 114.577 31.5687 114.597 31.5597C114.607 31.5551 114.615 31.5516 114.62 31.5494C114.623 31.5482 114.626 31.5467 114.626 31.5467L114.628 31.546C114.628 31.546 114.628 31.546 114.814 31.9592ZM111.796 30.0172L111.919 30.4537L103.4 33L103.4 32.5L103.4 32L111.674 29.5808L111.796 30.0172ZM105.465 27.3256L105.597 27.7591L103.179 28.4984L103.047 28.0649L102.914 27.6314L105.332 26.8921L105.465 27.3256Z" fill="#C29A75"/>
<path d="M129.292 30.7783C131.511 26.904 130.941 23.1905 130.379 21.818C131.787 19.3132 134.171 14.05 132.446 13.0352C130.721 12.0204 126.682 13.2405 124.879 13.9774C122.886 12.7267 118.404 10.2217 116.418 10.2075C115.831 8.1514 114.216 3.99122 112.451 3.79921C110.244 3.55919 109.173 6.04017 107.025 10.6483C105.592 11.2658 102.368 13.5261 100.937 17.6273L97.6214 16.0814C97.111 16.194 96.2553 16.6541 96.9163 17.5935L100.231 19.1393C100.124 19.6152 99.92 20.7648 99.9631 21.5563L95.9731 21.2736C95.5679 21.4061 94.8729 21.8651 95.3352 22.6417C95.4897 22.8014 95.8612 23.0973 96.111 23.0035L99.9643 23.3263C100.691 29.1349 107.119 33.1496 110.243 34.4308C117.468 37.9403 123.441 36.1438 125.524 34.8069L128.877 38.2986C130.062 38.8512 130.08 37.8663 129.941 37.3048C128.696 36.169 126.31 33.8584 126.727 33.702C127.143 33.5455 127.836 32.6122 128.13 32.165L128.553 32.3624L132.01 33.974C133.41 34.0658 133.085 32.9562 132.748 32.39L129.292 30.7783Z" fill="#140005"/>
<path d="M115.223 29.8277C113.501 30.4272 113.881 29.0849 114.286 28.3388C115.133 28.3484 116.653 27.989 115.96 26.4736C115.393 26.0336 114.07 25.224 113.321 25.5056C112.874 25.7412 112.217 26.5326 113.157 27.8125C112.368 28.5841 111.216 28.6605 110.779 27.7556C110.43 27.0317 109.937 27.5968 109.735 27.9698C110.219 29.8785 112.006 29.7299 112.838 29.417C113.381 31.4935 114.878 31.3033 115.559 30.9486C116.429 29.6714 115.698 29.6692 115.223 29.8277Z" fill="#FFEBEF"/>
<path d="M106.072 17.4086C108.453 14.6615 111.54 16.3641 112.786 17.5589C116.043 21.1814 114.139 23.7416 112.78 24.5689C111.729 25.043 109.071 25.4162 106.846 23.1164C104.621 20.8165 105.403 18.3529 106.072 17.4086Z" fill="#FDD16D"/>
<path d="M117.194 25.049C118.448 21.9171 121.408 21.8423 122.732 22.1964C124.206 22.5334 128.005 23.7787 126.679 27.5433C125.618 30.555 122.191 30.4765 120.61 30.0607C116.945 28.4919 116.805 26.0659 117.194 25.049Z" fill="#FDD16D"/>
<path d="M120.086 26.3976C120.252 23.3895 121.738 22.6096 122.46 22.5957C123.209 22.7696 124.565 23.7528 123.998 26.2937C123.432 28.8346 122.22 29.5551 121.685 29.5978C121.083 29.7844 119.92 29.4057 120.086 26.3976Z" fill="black"/>
<path d="M108.622 19.1235C110.347 17.1928 111.606 17.3886 112.021 17.7279C113.431 18.3857 112.492 20.4608 111.846 21.416C109.606 24.1582 108.114 23.6496 107.649 23.0526C107.254 22.5473 106.897 21.0542 108.622 19.1235Z" fill="black"/>
<path d="M106.072 17.4086C108.453 14.6615 111.54 16.3641 112.786 17.5589C116.043 21.1814 114.139 23.7416 112.78 24.5689C111.729 25.043 109.071 25.4162 106.846 23.1164C104.621 20.8165 105.403 18.3529 106.072 17.4086Z" fill="white"/>
<path d="M117.194 25.049C118.448 21.9171 121.408 21.8423 122.732 22.1964C124.206 22.5334 128.005 23.7787 126.679 27.5433C125.618 30.555 122.191 30.4765 120.61 30.0607C116.945 28.4919 116.805 26.0659 117.194 25.049Z" fill="white"/>
<path d="M120.085 26.3975C120.252 23.3894 121.737 22.6095 122.459 22.5956C123.208 22.7695 124.565 23.7526 123.998 26.2935C123.432 28.8344 122.22 29.555 121.685 29.5977C121.082 29.7843 119.919 29.4056 120.085 26.3975Z" fill="black"/>
<path d="M108.622 19.1234C110.346 17.1927 111.606 17.3885 112.02 17.7278C113.431 18.3856 112.492 20.4606 111.846 21.4159C109.606 24.1581 108.114 23.6495 107.648 23.0524C107.254 22.5472 106.897 21.0541 108.622 19.1234Z" fill="black"/>
<path d="M120.085 26.3975C120.252 23.3894 121.737 22.6095 122.459 22.5956C123.208 22.7695 124.565 23.7526 123.998 26.2935C123.432 28.8344 122.22 29.555 121.685 29.5977C121.082 29.7843 119.919 29.4056 120.085 26.3975Z" stroke="black"/>
<path d="M108.622 19.1234C110.346 17.1927 111.606 17.3885 112.02 17.7278C113.431 18.3856 112.492 20.4606 111.846 21.4159C109.606 24.1581 108.114 23.6495 107.648 23.0524C107.254 22.5472 106.897 21.0541 108.622 19.1234Z" stroke="black"/>
</svg>
